# File created by Blade
# Date/Time:  Tue Apr 07 20:45:22 2015
# Frame Rate: 120.000 fps
#------------------------------------------------------
:FULLY-SPECIFIED
:DEGREES
1004
root 0.653733 33.141083 -1.566160 8.838328 0.796436 -3.853923
Spine -8.919298 -3.354226 2.995150
Head 8.187390 -1.538405 -1.860900
LeftShoulder -22.783335 37.013696 20.116200
LeftArm 56.952204 -60.705480 -56.242317
LeftForeArm 14.405711 -0.000000 -0.450409
LeftHand 3.001299 -0.000000 6.626744
LeftHandThumb1 -26.253704 0.000000 33.147579
RightShoulder -8.473799 5.617140 -32.254653
RightArm 4.222380 28.050623 43.419788
RightForeArm -11.043543 -0.000000 -2.467535
RightHand 0.586578 -0.000000 2.870017
RightHandThumb1 -24.326973 -0.000000 -32.862282
LeftUpLeg 0.652896 -8.839936 5.803186
LeftLeg -5.713628 -0.000000 0.000000
LeftFoot -1.330479 4.825627 -19.495887
LeftToeBase -16.985476 -0.000000 0.000000
RightUpLeg -0.844094 0.067912 5.279026
RightLeg -4.860455 -0.000000 0.000000
RightFoot 0.131819 -7.354676 8.663496
RightToeBase -7.155752 -0.000000 0.000000
1005
root 0.661680 33.145623 -1.560386 8.804698 0.824176 -3.856619
Spine -8.902011 -3.519304 3.104522
Head 8.161448 -1.381664 -1.940576
LeftShoulder -22.733825 36.962754 20.139061
LeftArm 57.026663 -60.769755 -56.627077
LeftForeArm 14.389671 0.000000 -0.496184
LeftHand 3.041647 -0.000000 6.385492
LeftHandThumb1 -26.253704 0.000000 33.147579
RightShoulder -8.454113 5.673327 -32.249537
RightArm 4.243149 28.008797 43.389097
RightForeArm -11.030279 -0.000000 -2.391709
RightHand 0.534754 0.000000 2.759139
RightHandThumb1 -24.326973 -0.000000 -32.862282
LeftUpLeg 0.690244 -8.705537 5.801131
LeftLeg -5.717302 -0.000000 0.000000
LeftFoot -1.241514 4.617989 -19.695878
LeftToeBase -16.982415 -0.000000 0.000000
RightUpLeg -0.796593 0.073677 5.220415
RightLeg -4.862537 -0.000000 0.000000
RightFoot 0.224990 -7.215277 8.727436
RightToeBase -7.296352 -0.000000 0.000000
1006
root 0.665289 33.147695 -1.556621 8.780670 0.870937 -3.886933
Spine -8.891244 -3.698549 3.234390
Head 8.130519 -1.264343 -1.995806
LeftShoulder -22.744745 36.969870 20.116105
LeftArm 57.233087 -60.782655 -57.028573
LeftForeArm 14.233939 -0.000000 -0.597210
LeftHand 2.809254 0.000000 6.645021
LeftHandThumb1 -26.253704 0.000000 33.147579
RightShoulder -8.438188 5.727102 -32.243022
RightArm 4.271327 27.882831 43.343096
RightForeArm -11.067675 0.000000 -2.366781
RightHand 0.812517 -0.000000 2.737648
RightHandThumb1 -24.326973 -0.000000 -32.862282
LeftUpLeg 0.723035 -8.552632 5.817509
LeftLeg -5.735872 -0.000000 0.000000
LeftFoot -1.204295 4.488228 -19.787188
LeftToeBase -16.924565 -0.000000 0.000000
RightUpLeg -0.751040 0.133021 5.201159
RightLeg -4.889039 -0.000000 0.000000
RightFoot 0.311025 -7.157467 8.789363
RightToeBase -7.415372 -0.000000 0.000000
1007
root 0.665723 33.147279 -1.552916 8.732033 0.939787 -3.926165
Spine -8.855716 -3.889000 3.366691
Head 8.109829 -1.149968 -2.056033
LeftShoulder -22.659358 36.866646 20.189019
LeftArm 57.279979 -60.847695 -57.373950
LeftForeArm 14.322107 0.000000 -0.641433
LeftHand 2.865534 -0.000000 6.376100
LeftHandThumb1 -26.253704 0.000000 33.147579
RightShoulder -8.402771 5.734662 -32.214830
RightArm 4.274309 27.862085 43.254252
RightForeArm -11.508686 -0.000000 -2.229668
RightHand 0.911460 -0.000000 2.686008
RightHandThumb1 -24.326973 -0.000000 -32.862282
LeftUpLeg 0.794661 -8.440089 5.833643
LeftLeg -5.790681 -0.000000 0.000000
LeftFoot -1.177612 4.448599 -19.702285
LeftToeBase -16.960906 -0.000000 0.000000
RightUpLeg -0.670492 0.207487 5.208079
RightLeg -4.933990 -0.000000 0.000000
RightFoot 0.351083 -7.160036 8.845483
RightToeBase -7.421993 -0.000000 0.000000
1008
root 0.669572 33.145741 -1.551900 8.721536 1.018237 -3.958946
Spine -8.864951 -4.070670 3.503595
Head 8.112645 -1.067492 -2.123059
LeftShoulder -22.610842 36.817968 20.187773
LeftArm 57.364185 -60.857216 -57.615303
LeftForeArm 14.325113 0.000000 -0.726166
LeftHand 2.679106 -0.000000 6.287088
LeftHandThumb1 -26.253704 0.000000 33.147579
RightShoulder -8.394005 5.688114 -32.214621
RightArm 4.401435 27.748773 43.245779
RightForeArm -11.218017 0.000000 -2.186180
RightHand 0.621658 0.000000 2.725332
RightHandThumb1 -24.326973 -0.000000 -32.862282
LeftUpLeg 0.816171 -8.359130 5.859990
LeftLeg -5.840077 -0.000000 0.000000
LeftFoot -1.149585 4.361897 -19.681060
LeftToeBase -16.993001 -0.000000 0.000000
RightUpLeg -0.632448 0.328598 5.200034
RightLeg -4.980711 -0.000000 0.000000
RightFoot 0.339319 -7.188572 9.034799
RightToeBase -7.400033 -0.000000 0.000000
1009
root 0.678240 33.143142 -1.550577 8.703328 1.097813 -3.914977
Spine -8.872097 -4.259248 3.569061
Head 8.131346 -0.981694 -2.213630
LeftShoulder -22.568664 36.801266 20.152954
LeftArm 57.410534 -60.875416 -57.793106
LeftForeArm 14.238342 0.000000 -0.826755
LeftHand 2.692441 -0.000000 6.252491
LeftHandThumb1 -26.253704 0.000000 33.147579
RightShoulder -8.335219 5.699692 -32.143034
RightArm 4.405940 27.646798 43.040632
RightForeArm -11.366741 -0.000000 -2.197555
RightHand 1.411960 0.000000 2.417388
RightHandThumb1 -24.326973 -0.000000 -32.862282
LeftUpLeg 0.845742 -8.372634 5.820074
LeftLeg -5.885454 -0.000000 0.000000
LeftFoot -1.109615 4.263538 -19.805769
LeftToeBase -16.943898 -0.000000 0.000000
RightUpLeg -0.589363 0.440274 5.116130
RightLeg -5.003171 -0.000000 0.000000
RightFoot 0.259184 -7.246088 9.166278
RightToeBase -7.356575 -0.000000 0.000000
